<svg width="41" height="40" viewBox="0 0 41 40" fill="none" xmlns="http://www.w3.org/2000/svg">
    <g clip-path="url(#clip0)">
        <rect x="0.401367" width="40.1338" height="40" rx="8" fill="#F4C468"/>
        <path d="M34.7155 13H32.9369C32.5689 13 32.2491 13.2495 32.1605 13.6037L30.6667 19.5044C30.6237 19.6707 30.4786 19.6895 30.4357 19.6895C30.3954 19.6895 30.2449 19.6842 30.1939 19.5178L28.2621 13.5554C28.1547 13.2227 27.8484 13 27.4991 13H25.3874C25.0381 13 24.7319 13.2227 24.6244 13.5554L22.69 19.5205C22.6363 19.6842 22.4912 19.6922 22.4482 19.6922C22.4052 19.6922 22.2601 19.6734 22.2171 19.5071L20.6938 13.6037C20.6025 13.2495 20.2827 13.0027 19.9174 13.0027H18.0313C17.7788 13.0027 17.5477 13.1181 17.3946 13.3166C17.2414 13.5152 17.1931 13.7701 17.2576 14.0143L20.3956 25.5257C20.4896 25.8719 20.8093 26.1161 21.1693 26.1161H23.3321C23.6814 26.1161 23.9877 25.8934 24.0951 25.5606L26.1746 19.1421C26.2256 18.9838 26.368 18.9704 26.4083 18.9704C26.4513 18.9704 26.591 18.9838 26.6421 19.1421L28.7054 25.5579C28.8129 25.8907 29.1192 26.1134 29.4684 26.1134H31.5775C31.9375 26.1134 32.2572 25.8719 32.3512 25.5231L35.4893 14.0116C35.5564 13.7701 35.5054 13.5152 35.3522 13.3139C35.1991 13.1154 34.9681 13 34.7155 13Z" fill="black"/>
        <path d="M14.7778 13.5903C14.6837 13.2442 14.364 13 14.004 13H12.1395C11.8869 13 11.6559 13.1154 11.5027 13.3139C11.3496 13.5125 11.3012 13.7674 11.3657 14.0116L14.5037 25.5231C14.5978 25.8719 14.9175 26.1134 15.2775 26.1134L17.142 26.1053C17.3919 26.1053 17.623 25.99 17.7761 25.7887C17.9292 25.5901 17.9776 25.3352 17.9104 25.0937L14.7778 13.5903Z" fill="black"/>
        <path d="M8.85903 13.5903C8.765 13.2442 8.44529 13 8.08528 13H6.22073C5.96818 13 5.73713 13.1154 5.58399 13.3139C5.43085 13.5152 5.37981 13.7701 5.44697 14.0116L8.58499 25.5231C8.67903 25.8719 8.99874 26.1134 9.35875 26.1134L11.2233 26.1053C11.4732 26.1053 11.7042 25.99 11.8574 25.7887C12.0105 25.5901 12.0589 25.3352 11.9917 25.0937L8.85903 13.5903Z" fill="black"/>
    </g>
    <defs>
        <clipPath id="clip0">
            <path d="M0.401367 0H40.5351V40H0.401367V0Z" fill="white"/>
        </clipPath>
    </defs>
</svg>
